<?xml version="1.0" encoding="utf-8"?>
<!-- Generator: Adobe Illustrator 26.0.1, SVG Export Plug-In . SVG Version: 6.00 Build 0)  -->
<svg version="1.1" id="Calque_1" xmlns="http://www.w3.org/2000/svg" xmlns:xlink="http://www.w3.org/1999/xlink" x="0px" y="0px"
	 viewBox="0 0 96.2 96.2" style="enable-background:new 0 0 96.2 96.2;" xml:space="preserve">
<style type="text/css">
	.st0{fill:#673AB7;}
</style>
<path class="st0" d="M87.7,74.9c-10.1,0-22.1-7-31.6-7c-8.5,0-11.4,7.7-17.5,7.7c-7.6,0-9.5-9.8-9.5-16.2c0-1.9,0.2-11.2,1.1-20.2
	c-4.2,1.6-8.5,3.5-12.7,5.5c-0.9,0.5-1.8,1-2.5,1c-1,0-1.6-1.7-1.6-2.7c0-0.5,0.1-0.8,0.4-1.2c0.7-1.1,2.5-1.5,2.5-1.5
	c1.5-0.6,7.4-3.1,14.5-5.9c1-7.5,2.7-13.8,5.5-13.8c1.6,0,2.4,3.3,2.4,7.5c0,1.1,0,2.2-0.1,3.3c7.5-2.8,15.1-5.5,19.8-6.7
	c1.7-0.5,4.3-0.9,6.3-0.9c1.7,0,4.3,0.5,4.3,3.1c0,0.6-0.4,1.2-1.3,1.6c-2,1.4-18.5,4.3-29.7,7.9c-2.3,0.9-3,6.2-3.1,11.5
	c0.4,7.6-0.4,19,9.6,19.1c4,0,10.2-10.6,19.9-10.6S84,66,92.5,66c0.1,0,0.1,0,0.2,0c2.2-5.5,3.4-11.5,3.4-17.8
	C96.2,21.5,74.7,0,48.1,0S0,21.5,0,48.1s21.5,48.1,48.1,48.1c16.7,0,31.3-8.5,40-21.3C87.9,74.8,87.8,74.9,87.7,74.9z"/>
</svg>
